<?xml version="1.0" encoding="UTF-8"?>
<svg id="Layer_1" xmlns="http://www.w3.org/2000/svg" version="1.1" viewBox="0 0 512 512">
  <!-- Generator: Adobe Illustrator 30.1.0, SVG Export Plug-In . SVG Version: 2.1.1 Build 136)  -->
  <defs>
    <style>
      .st0 {
        fill: #096;
      }

      .st1 {
        fill: #ff8904;
      }
    </style>
  </defs>
  <path class="st1" d="M278.68,491.43l203.05-190.96-.08-96.75L309.34,14.95l-61.13-.76-26.48,200.04-6.25,6.96c-1.67,1.86-2.8,4.14-3.26,6.59l-5.68,30.11c-.42,2.2-.28,4.47.39,6.61l10.76,34.39,1.48,1.61c3.44,3.74,9.68,1.85,10.48-3.16l5.22-32.76,29.71-25.37,28.71-143.84,136.8,160.16-136.56,124.11-14.85,111.79h0Z"/>
  <path class="st0" d="M233.32,20.57L30.27,211.53l.08,96.75,172.31,188.77,61.13.76,26.48-200.04,6.25-6.96c1.67-1.86,2.8-4.14,3.26-6.59l5.68-30.11c.42-2.2.28-4.47-.39-6.61l-10.76-34.39-1.48-1.61c-3.44-3.74-9.68-1.85-10.48,3.16l-5.22,32.76-29.71,25.37-28.71,143.84-136.8-160.16,136.56-124.11,14.85-111.79h0Z"/>
</svg>